<svg xmlns="http://www.w3.org/2000/svg" width="15" height="16" fill="none"><path fill="#fff" fill-rule="evenodd" d="M12.372 2.828c.3-.408.417-.912.326-1.402a1.87 1.87 0 0 0-.81-1.21L11.563 0 7.5 5.516 3.438 0l-.323.215a1.87 1.87 0 0 0-.811 1.211c-.09.49.027.994.327 1.402l3.425 4.65-1.421 1.929A3.73 3.73 0 0 0 2.2 9.5 3.5 3.5 0 0 0 .4 11.064a3.23 3.23 0 0 0-.315 2.298c.184.777.65 1.468 1.317 1.95a3.68 3.68 0 0 0 2.33.684 3.65 3.65 0 0 0 2.243-.905 3.32 3.32 0 0 0 1.103-2.066c.1-.79-.097-1.59-.557-2.255L7.5 9.44l.978 1.327a3.25 3.25 0 0 0-.559 2.255c.1.791.49 1.523 1.102 2.067a3.65 3.65 0 0 0 2.244.906 3.68 3.68 0 0 0 2.329-.683 3.37 3.37 0 0 0 1.318-1.949 3.23 3.23 0 0 0-.313-2.297A3.5 3.5 0 0 0 12.803 9.5a3.73 3.73 0 0 0-2.435-.095L8.947 7.478zM2.369 12.625c0-.148.03-.295.09-.431q.091-.206.256-.365a1.237 1.237 0 0 1 1.675 0q.166.158.257.365a1.08 1.08 0 0 1-.257 1.226c-.222.212-.523.33-.837.33s-.615-.118-.838-.33a1.1 1.1 0 0 1-.346-.795m7.894 0c0-.299.124-.585.346-.796.223-.212.524-.33.838-.33s.615.118.837.33c.222.21.347.497.347.796 0 .298-.125.584-.347.796-.222.21-.523.33-.837.33s-.615-.12-.838-.33a1.1 1.1 0 0 1-.346-.796" clip-rule="evenodd"/></svg>